#!OML:ASF H:\ManfredETheater\Project 1\Capture day 1\Session 1\subject.ASF
:FULLY-SPECIFIED
:DEGREES
213
root 2.22697 17.8878 -25.978 -179.299 -18.387 -180.844
lowerback 13.4453 -2.00902 0.12282
upperback 0.327176 -2.62753 1.96816
thorax -7.11205 -1.30047 2.53103
lowerneck -13.9948 -6.23925 -7.10618
upperneck 9.38154 -7.52824 4.0618
head 5.53118 -3.64824 1.73428
rclavicle -1.43125e-014 -2.78299e-014
rhumerus -44.5989 -15.9337 -62.5229
rradius 45.7231
rwrist -4.93007
rhand -26.4297 -12.2699
rfingers 7.12502
rthumb 0.130732 -42.2496
lclavicle -1.43125e-014 -2.78299e-014
lhumerus -45.1566 15.2036 74.686
lradius 55.6208
lwrist -8.56727
lhand -18.2526 -1.95797
lfingers 7.12502
lthumb 8.02654 27.8696
rfemur -20.4795 8.63329 12.2212
rtibia 30.9336
rfoot -8.79042 1.27527
rtoes -24.2619
lfemur -22.987 -9.11211 -18.9434
ltibia 39.028
lfoot -17.7158 -14.5129
ltoes 2.23923
214
root 2.19209 17.8951 -26.0074 -179.332 -17.9675 -180.867
lowerback 13.1691 -2.00205 -0.00934998
upperback 0.251467 -2.63506 1.93133
thorax -7.03334 -1.29773 2.55659
lowerneck -14.1548 -6.17318 -7.03433
upperneck 9.51349 -7.4446 4.05737
head 5.59151 -3.60332 1.72428
rclavicle 3.37934e-014 8.74653e-015
rhumerus -44.5046 -16.0746 -62.9469
rradius 45.9218
rwrist -4.73207
rhand -26.5299 -12.1821
rfingers 7.12502
rthumb 0.0339656 -42.1618
lclavicle 3.37934e-014 8.74653e-015
lhumerus -44.9996 14.902 75.1116
lradius 54.6823
lwrist -8.45733
lhand -17.7325 -1.64804
lfingers 7.12502
lthumb 8.52846 28.1597
rfemur -20.2887 8.75131 12.1563
rtibia 30.7823
rfoot -8.95809 1.52393
rtoes -24.1774
lfemur -22.6442 -8.87162 -19.0612
ltibia 38.8765
lfoot -17.8082 -14.4392
ltoes 2.64135
215
root 2.1573 17.9024 -26.0351 -179.358 -17.5771 -180.892
lowerback 12.9047 -2.00493 -0.129472
upperback 0.169708 -2.65298 1.89697
thorax -6.96752 -1.30031 2.58072
lowerneck -14.3125 -6.10405 -6.9556
upperneck 9.64222 -7.35632 4.03555
head 5.64935 -3.55716 1.70846
rclavicle -6.14245e-014 -6.36111e-015
rhumerus -44.4084 -16.1886 -63.378
rradius 46.0565
rwrist -4.4931
rhand -26.6179 -12.0959
rfingers 7.12502
rthumb -0.0510463 -42.0756
lclavicle -6.14245e-014 -6.36111e-015
lhumerus -44.8568 14.5889 75.5315
lradius 53.7734
lwrist -8.3462
lhand -17.1398 -1.28915
lfingers 7.12502
lthumb 9.10048 28.4945
rfemur -20.1066 8.85227 12.0821
rtibia 30.6271
rfoot -9.11832 1.76237
rtoes -24.1545
lfemur -22.3157 -8.66827 -19.1829
ltibia 38.7203
lfoot -17.9124 -14.3694
ltoes 3.01601
216
root 2.1227 17.9097 -26.0613 -179.378 -17.2126 -180.922
lowerback 12.658 -2.0156 -0.243204
upperback 0.091403 -2.68008 1.86592
thorax -6.90741 -1.30778 2.60714
lowerneck -14.5076 -6.03592 -6.86994
upperneck 9.77657 -7.2662 3.99715
head 5.71424 -3.5105 1.68564
rclavicle 6.0033e-014 2.14687e-014
rhumerus -44.2839 -16.2913 -63.8152
rradius 46.1225
rwrist -4.21895
rhand -26.677 -11.9982
rfingers 7.12502
rthumb -0.108145 -41.9779
lclavicle 6.0033e-014 2.14687e-014
lhumerus -44.7001 14.2784 75.9537
lradius 52.892
lwrist -8.23984
lhand -16.4769 -0.890329
lfingers 7.12502
lthumb 9.74007 28.8644
rfemur -19.9352 8.93862 11.9976
rtibia 30.4729
rfoot -9.27281 1.9818
rtoes -24.2091
lfemur -22.0008 -8.50997 -19.3103
ltibia 38.5617
lfoot -18.0244 -14.2894
ltoes 3.36599
217
root 2.0884 17.9167 -26.086 -179.39 -16.8733 -180.959
lowerback 12.4247 -2.0316 -0.35431
upperback 0.0108711 -2.71338 1.83725
thorax -6.85679 -1.31833 2.63635
lowerneck -14.7102 -5.96811 -6.7858
upperneck 9.90913 -7.17504 3.95257
head 5.77975 -3.46375 1.66119
rclavicle 4.41302e-014 4.77083e-015
rhumerus -44.1525 -16.3739 -64.2514
rradius 46.1319
rwrist -3.93138
rhand -26.7009 -11.8828
rfingers 7.12502
rthumb -0.13116 -41.8625
lclavicle 4.41302e-014 4.77083e-015
lhumerus -44.5442 13.9595 76.3771
lradius 52.0368
lwrist -8.14051
lhand -15.7614 -0.472472
lfingers 7.12502
lthumb 10.4303 29.2488
rfemur -19.7767 9.01187 11.9014
rtibia 30.3263
rfoot -9.42385 2.17789
rtoes -24.3275
lfemur -21.698 -8.39985 -19.4448
ltibia 38.3998
lfoot -18.1277 -14.1831
ltoes 3.72645
218
root 2.05446 17.9235 -26.1096 -179.395 -16.5553 -181.001
lowerback 12.2074 -2.05132 -0.461892
upperback -0.0706501 -2.75081 1.81026
thorax -6.8158 -1.33101 2.66675
lowerneck -14.9297 -5.90416 -6.6996
upperneck 10.0402 -7.08769 3.902
head 5.84766 -3.41899 1.63387
rclavicle 1.65985e-014 -1.59028e-014
rhumerus -44.0152 -16.4363 -64.6885
rradius 46.0979
rwrist -3.6354
rhand -26.6753 -11.754
rfingers 7.12502
rthumb -0.106465 -41.7337
lclavicle 1.65985e-014 -1.59028e-014
lhumerus -44.3763 13.6374 76.8011
lradius 51.2013
lwrist -8.05861
lhand -15.0164 -0.0616082
lfingers 7.12502
lthumb 11.1489 29.6222
rfemur -19.6339 9.0745 11.796
rtibia 30.1918
rfoot -9.57573 2.34846
rtoes -24.483
lfemur -21.41 -8.32663 -19.5851
ltibia 38.2353
lfoot -18.2185 -14.0643
ltoes 4.09917
